<?xml version="1.0" encoding="UTF-8"?>
<svg width="158px" height="23px" viewBox="0 0 158 23" version="1.1" xmlns="http://www.w3.org/2000/svg" xmlns:xlink="http://www.w3.org/1999/xlink">
    <title>VisitDenmark-INT-Blå-Skrift-Rgb(Online) (3)</title>
    <g id="Page-1" stroke="none" stroke-width="1" fill="none" fill-rule="evenodd">
        <g id="Extra-Small" transform="translate(-19.000000, -130.000000)">
            <g id="VisitDenmark-INT-Blå-Skrift-Rgb(Online)-(3)" transform="translate(19.000000, 130.000000)">
                <polyline id="Fill-1" fill="#16253C" points="-3.25900005e-15 5.14230562 2.58686203 5.14230562 6.86160568 15.0494368 11.1730424 5.14230562 13.5580925 5.14230562 7.96239803 17.9848831 5.61404101 17.9848831 -3.25900005e-15 5.14230562"></polyline>
                <path d="M14.6036159,17.9848831 L16.8969333,17.9848831 L16.8969333,8.18783113 L14.6036159,8.18783113 L14.6036159,17.9848831 Z M15.7594479,6.57333568 C15.3434401,6.57333568 14.9948559,6.44192859 14.7136951,6.17888508 C14.4323051,5.91584158 14.2917247,5.58881452 14.2917247,5.19734524 C14.2917247,4.80610529 14.4323051,4.47884889 14.7136951,4.21580539 C14.9948559,3.95299121 15.3434401,3.82135479 15.7594479,3.82135479 C16.1752263,3.82135479 16.5238106,3.94679925 16.8052006,4.19745885 C17.0863613,4.44811844 17.227171,4.76344958 17.227171,5.14230562 C17.227171,5.54592948 17.089572,5.88534046 16.8143739,6.16053855 C16.5391758,6.43573663 16.1873809,6.57333568 15.7594479,6.57333568 L15.7594479,6.57333568 Z" id="Fill-2" fill="#16253C"></path>
                <path d="M22.74925,18.1130795 C21.9541569,18.1130795 21.1774102,18.0091923 20.4192395,17.8014177 C19.6608394,17.5936431 19.0551743,17.3305996 18.6029321,17.0125165 L19.483566,15.2695953 C19.923883,15.5631399 20.4527219,15.7988929 21.0705417,15.975937 C21.6879027,16.1534398 22.2965491,16.2417325 22.8960223,16.2417325 C24.2658208,16.2417325 24.9508347,15.881223 24.9508347,15.1597454 C24.9508347,14.8171238 24.7765426,14.5786187 24.4279583,14.4437717 C24.0793741,14.3093833 23.5198046,14.1809575 22.74925,14.0587237 C21.9420023,13.9367192 21.2845082,13.7956802 20.776997,13.6367533 C20.2692566,13.4780557 19.8289396,13.199647 19.4560462,12.8017564 C19.0826941,12.4045538 18.8964768,11.8511764 18.8964768,11.1416239 C18.8964768,10.2121424 19.2845061,9.4693369 20.061482,8.91251943 C20.8379993,8.35616063 21.8869627,8.0777519 23.2079135,8.0777519 C23.8803141,8.0777519 24.5531735,8.1543487 25.2260328,8.30708364 C25.8986628,8.46004791 26.449059,8.66484115 26.8772213,8.9216927 L25.9965874,10.6646139 C25.1648012,10.1754493 24.2288984,9.93075236 23.1895669,9.93075236 C22.5167076,9.93075236 22.0062152,10.0316583 21.6576309,10.2334703 C21.3090467,10.4352822 21.1347545,10.701307 21.1347545,11.031774 C21.1347545,11.3984755 21.3212012,11.6583084 21.694324,11.8112726 C22.0672174,11.9642369 22.6451334,12.1080279 23.4280719,12.2424163 C24.2105518,12.3646501 24.8529101,12.5054598 25.3544586,12.6643867 C25.8557778,12.8233136 26.2869214,13.0925491 26.6478896,13.4714051 C27.0086284,13.8507198 27.1891125,14.3887321 27.1891125,15.0861299 C27.1891125,16.0034568 26.7914513,16.7370891 25.9965874,17.2877146 C25.2014943,17.8381108 24.1188192,18.1130795 22.74925,18.1130795" id="Fill-3" fill="#16253C"></path>
                <path d="M28.9870733,17.9848831 L31.2803907,17.9848831 L31.2803907,8.18783113 L28.9870733,8.18783113 L28.9870733,17.9848831 Z M30.1431346,6.57333568 C29.7271269,6.57333568 29.3785426,6.44192859 29.0971526,6.17888508 C28.8157625,5.91584158 28.6754115,5.58881452 28.6754115,5.19734524 C28.6754115,4.80610529 28.8157625,4.47884889 29.0971526,4.21580539 C29.3785426,3.95299121 29.7271269,3.82135479 30.1431346,3.82135479 C30.5586838,3.82135479 30.907268,3.94679925 31.1888874,4.19745885 C31.4700481,4.44811844 31.6106284,4.76344958 31.6106284,5.14230562 C31.6106284,5.54592948 31.4730294,5.88534046 31.1980606,6.16053855 C30.9226332,6.43573663 30.5710677,6.57333568 30.1431346,6.57333568 L30.1431346,6.57333568 Z" id="Fill-4" fill="#16253C"></path>
                <path d="M32.8029242,10.0958712 L32.8029242,8.26121729 L34.4174196,8.26121729 L34.4174196,6.0229395 L36.710737,6.0229395 L36.710737,8.26121729 L39.3342921,8.26121729 L39.3342921,10.0958712 L36.710737,10.0958712 L36.710737,14.7558922 C36.710737,15.7344507 37.1632086,16.223386 38.0683809,16.223386 C38.582084,16.223386 39.0102464,16.0889976 39.3526387,15.8197621 L39.9949969,17.4530628 C39.7257614,17.6729919 39.398505,17.8381108 39.0132277,17.94819 C38.6279504,18.0580399 38.2213452,18.1130795 37.7931828,18.1130795 C36.716929,18.1130795 35.8851428,17.8321481 35.2980535,17.2693681 C34.7109642,16.7070466 34.4174196,15.8871857 34.4174196,14.8109318 L34.4174196,10.0958712 L32.8029242,10.0958712" id="Fill-5" fill="#16253C"></path>
                <path d="M47.4251159,15.9667638 C48.3669814,15.9667638 49.1957863,15.7862797 49.911072,15.4255409 C50.626587,15.064802 51.1769832,14.5510989 51.5622605,13.8844316 C51.9477672,13.2179935 52.1401765,12.4442282 52.1401765,11.5635944 C52.1401765,10.6829605 51.9477672,9.90942451 51.5622605,9.24275714 C51.1769832,8.57608977 50.626587,8.062616 49.911072,7.70164784 C49.1957863,7.34090901 48.3669814,7.16042493 47.4251159,7.16042493 L44.3062043,7.16042493 L44.3062043,15.9667638 L47.4251159,15.9667638 Z M41.9211542,5.14230562 L47.5351952,5.14230562 C48.9049937,5.14230562 50.1220572,5.40833044 51.1861565,5.94038007 C52.2502558,6.47242971 53.0760794,7.22463782 53.6631686,8.1970044 C54.2500285,9.16937098 54.5435732,10.2914912 54.5435732,11.5635944 C54.5435732,12.8359268 54.2500285,13.9578177 53.6631686,14.9304136 C53.0760794,15.9025509 52.2502558,16.654759 51.1861565,17.1868086 C50.1220572,17.7188583 48.9049937,17.9848831 47.5351952,17.9848831 L41.9211542,17.9848831 L41.9211542,5.14230562 L41.9211542,5.14230562 Z" id="Fill-6" fill="#16253C"></path>
                <path d="M60.9281688,9.91240582 C60.1943073,9.91240582 59.5732769,10.129583 59.0659951,10.563708 C58.5582546,10.9980623 58.2495741,11.5759783 58.1394949,12.2974559 L63.6984963,12.2974559 C63.6003423,11.5881328 63.300835,11.0131982 62.7992865,10.5728812 C62.297738,10.1325643 61.6739556,9.91240582 60.9281688,9.91240582 Z M65.8817344,13.1413967 C65.8817344,13.3003236 65.8693505,13.5264447 65.8450413,13.8202187 L58.1578414,13.8202187 C58.2922298,14.5419257 58.6440247,15.1134204 59.2127674,15.5353908 C59.7815101,15.9575905 60.4878519,16.1685757 61.3317927,16.1685757 C62.4078172,16.1685757 63.2948724,15.8140288 63.9920409,15.1044764 L65.221259,16.5171599 C64.7809421,17.0430176 64.2241246,17.4409082 63.5517239,17.709685 C62.8788646,17.9786911 62.1206939,18.1130795 61.2767531,18.1130795 C60.2002699,18.1130795 59.2522125,17.8995717 58.4330395,17.47118 C57.6134078,17.0430176 56.9804522,16.4469844 56.5341727,15.6823924 C56.0874344,14.9182591 55.864524,14.0525317 55.864524,13.0863571 C55.864524,12.1321077 56.0814718,11.273031 56.5158261,10.5086683 C56.9497218,9.74430565 57.5524056,9.14804313 58.3227309,8.71988077 C59.0935149,8.29194774 59.9617649,8.0777519 60.9281688,8.0777519 C61.8819595,8.0777519 62.7353029,8.2887371 63.4872817,8.7107075 C64.2397192,9.1326779 64.8268084,9.72595912 65.2487788,10.4903218 C65.6705199,11.2546845 65.8817344,12.138529 65.8817344,13.1413967 L65.8817344,13.1413967 Z" id="Fill-7" fill="#16253C"></path>
                <path d="M67.8996244,17.9848831 L67.8996244,8.18783113 L70.0828626,8.18783113 L70.0828626,9.45374234 C70.8534172,8.53641538 71.9785187,8.0777519 73.4586258,8.0777519 C74.0824081,8.0777519 74.6449589,8.16948459 75.1465074,8.35294998 C75.6478266,8.53641538 76.0759889,8.80542151 76.4307652,9.16019771 C76.785312,9.51497391 77.0607394,9.96148281 77.2563594,10.4994951 C77.4519794,11.037966 77.549904,11.6617483 77.549904,12.3708421 L77.549904,17.9848831 L75.2565866,17.9848831 L75.2565866,12.6643867 C75.2565866,11.8082913 75.0547747,11.1631811 74.6511508,10.7288268 C74.247527,10.2947018 73.6725923,10.0775247 72.9265762,10.0775247 C72.0826354,10.0775247 71.415968,10.3313949 70.9268034,10.8389061 C70.4376388,11.3466465 70.1929418,12.0772975 70.1929418,13.0310882 L70.1929418,17.9848831 L67.8996244,17.9848831" id="Fill-8" fill="#16253C"></path>
                <path d="M82.4667766,8.18783113 L82.4667766,9.4353958 C82.8337073,8.99507886 83.2923708,8.65887853 83.842767,8.42633614 C84.3931632,8.19402309 85.0047909,8.0777519 85.6776503,8.0777519 C86.4112825,8.0777519 87.0625846,8.21259896 87.6313274,8.48137576 C88.2002994,8.75061122 88.6495603,9.16019771 88.979798,9.71059389 C89.3836512,9.19689079 89.9033169,8.79624824 90.5392538,8.50889557 C91.1751907,8.22177223 91.8785512,8.0777519 92.6493352,8.0777519 C93.8842866,8.0777519 94.8628451,8.43550941 95.5845521,9.15102444 C96.3060298,9.86653947 96.6672273,10.939812 96.6672273,12.3708421 L96.6672273,17.9848831 L94.3739099,17.9848831 L94.3739099,12.6643867 C94.3739099,11.8082913 94.1840232,11.1631811 93.8049378,10.7288268 C93.4256231,10.2947018 92.8814189,10.0775247 92.1723252,10.0775247 C91.4015412,10.0775247 90.7837215,10.3284136 90.3190954,10.8297328 C89.8542399,11.3312813 89.6219269,12.0589509 89.6219269,13.0127416 L89.6219269,17.9848831 L87.3286095,17.9848831 L87.3286095,12.6643867 C87.3286095,11.8082913 87.1389521,11.1631811 86.7596374,10.7288268 C86.3807814,10.2947018 85.8361185,10.0775247 85.1270248,10.0775247 C84.3440862,10.0775247 83.7235145,10.3284136 83.264851,10.8297328 C82.8061875,11.3312813 82.5768558,12.0589509 82.5768558,13.0127416 L82.5768558,17.9848831 L80.2835384,17.9848831 L80.2835384,8.18783113 L82.4667766,8.18783113" id="Fill-9" fill="#16253C"></path>
                <path d="M100.978205,15.0861299 C100.978205,15.5021377 101.143324,15.8323754 101.473562,16.0770723 C101.8038,16.32154 102.262463,16.4437738 102.849552,16.4437738 C103.436642,16.4437738 103.950345,16.312596 104.390662,16.0490939 C104.830979,15.7862797 105.14287,15.410405 105.326335,14.921011 L105.326335,13.7837549 L102.959632,13.7837549 C101.638681,13.7837549 100.978205,14.2176506 100.978205,15.0861299 Z M102.794513,12.2607628 L105.326335,12.2607628 L105.326335,12.1137612 C105.326335,11.416822 105.121313,10.887983 104.711726,10.5270149 C104.30191,10.1665054 103.693493,9.98579198 102.886245,9.98579198 C102.335849,9.98579198 101.794626,10.071562 101.262577,10.2426435 C100.730527,10.4139543 100.281037,10.6524593 99.914106,10.9581586 L99.0151256,9.28862349 C99.5288287,8.89715421 100.146419,8.59764695 100.868126,8.38964306 C101.589604,8.18186851 102.354196,8.0777519 103.161443,8.0777519 C104.604628,8.0777519 105.708402,8.42037352 106.472994,9.10515809 C107.237127,9.790172 107.619653,10.8359247 107.619653,12.2424163 L107.619653,17.9848831 L105.454761,17.9848831 L105.454761,16.792358 C104.879597,17.6729919 103.85242,18.1130795 102.372772,18.1130795 C101.822146,18.1130795 101.320598,18.0399227 100.868126,17.8931504 C100.415425,17.7463781 100.030377,17.5445661 99.7122941,17.2877146 C99.3939817,17.030863 99.1497434,16.7219532 98.9784325,16.3612144 C98.8071217,16.0007049 98.721581,15.6062543 98.721581,15.1778626 C98.721581,14.2972287 99.0486081,13.5908869 99.7031208,13.0588373 C100.357175,12.5267877 101.388021,12.2607628 102.794513,12.2607628 L102.794513,12.2607628 Z" id="Fill-10" fill="#16253C"></path>
                <path d="M112.554872,9.61886119 C113.215347,8.59145499 114.377142,8.0777519 116.040714,8.0777519 L116.040714,10.2609901 C115.844865,10.224297 115.667362,10.2059504 115.508664,10.2059504 C114.615647,10.2059504 113.918478,10.4660126 113.417159,10.985449 C112.915381,11.5055734 112.664721,12.2548002 112.664721,13.2331294 L112.664721,17.9848831 L110.371404,17.9848831 L110.371404,8.18783113 L112.554872,8.18783113 L112.554872,9.61886119" id="Fill-11" fill="#16253C"></path>
                <polyline id="Fill-12" fill="#16253C" points="117.801982 17.9848831 117.801982 4.37175097 120.095299 4.37175097 120.095299 12.5907712 124.847282 8.18783113 127.599263 8.18783113 123.507985 12.2974559 127.984311 17.9848831 125.195637 17.9848831 121.801527 13.7837549 120.095299 15.3980211 120.095299 17.9848831 117.801982 17.9848831"></polyline>
                <path d="M144.42281,22.0440549 C144.095783,22.0440549 143.850628,21.9394796 143.770591,21.9050799 C142.640444,21.3938994 141.628632,20.8726284 140.730799,20.3417254 C139.69376,19.7257403 138.891558,19.1354404 138.857846,19.1106726 C136.827572,17.6553334 135.243349,16.0075848 134.165948,14.2249892 C133.418785,13.0219149 132.961269,11.6314765 132.942463,11.5725383 C131.692605,7.90552376 133.493777,3.93624999 137.049795,2.55452626 C138.980768,1.80598746 141.187627,2.00321275 143.019988,3.07556797 L143.053929,3.09620783 C143.109886,3.13129559 143.349767,3.28334253 143.663722,3.51771957 C145.183274,1.3583319 147.643087,0 150.244396,0 C151.178006,0 152.093728,0.17131081 152.966564,0.509575127 C154.93446,1.26935118 156.486577,2.77927136 157.335563,4.76115626 C158.186384,6.74556382 158.221242,8.9606791 157.433488,10.9985209 C157.433488,10.9985209 157.236951,11.5076374 157.167463,11.6709216 C157.088344,11.8697522 156.650091,12.9242196 155.745377,14.2784235 C153.586677,17.3340396 150.007267,19.8876485 145.086038,21.8975119 C144.87918,21.9919966 144.646409,22.0440549 144.42281,22.0440549" id="Fill-13" fill="#FFFFFE"></path>
                <path d="M141.784119,17.5328702 L141.44425,19.2760208 C142.285897,19.7739 143.24244,20.2687979 144.316171,20.7547518 C144.345067,20.7673651 144.379925,20.783189 144.42281,20.783189 C144.452394,20.783189 144.501471,20.7666771 144.516607,20.7570452 C150.268476,18.4148801 153.11219,15.7177095 154.579913,13.6404226 L142.53885,13.6404226 L141.784119,17.5328702 M142.312041,4.4254146 C140.880552,3.58766575 139.161252,3.37943253 137.557306,4.00138021 C134.750973,5.09185263 133.259858,8.30112101 134.274881,11.279223 L140.997282,11.279223 L141.852689,6.81161136 L142.312041,4.4254146 M152.460429,1.95688774 C149.163327,0.679509947 145.410771,2.44949232 144.026296,5.90919096 L143.642394,7.89245185 L142.99201,11.279223 L155.870821,11.279223 C155.984341,11.0141155 156.067588,10.7689599 156.126297,10.6338835 C157.488528,7.10859596 155.776107,3.23724685 152.460429,1.95688774 M139.690091,18.1233995 L139.999689,16.4506537 L140.544123,13.6404226 L135.364894,13.6404226 C136.119625,14.8886753 137.414432,16.4921628 139.690091,18.1233995" id="Fill-14" fill="#D22431"></path>
                <path d="M136.445964,11.279223 L134.274881,11.279223 C134.05885,10.6451207 133.956339,10.0006985 133.955879,9.36843093 C133.954275,7.0308525 135.348383,4.85976891 137.557306,4.00138021 C138.188198,3.75668324 138.836748,3.64064138 139.478647,3.64064138 C140.469131,3.64064138 141.443562,3.91721546 142.312041,4.4254146 L141.852689,6.81161136 C141.44081,6.67653496 141.003474,6.60590079 140.560864,6.60590079 C139.900159,6.60590079 139.228446,6.76345169 138.614296,7.09919336 C137.107816,7.92960359 136.285661,9.60418396 136.445964,11.279223" id="Fill-15" fill="#9F2430"></path>
                <path d="M139.690091,18.1233995 C137.414432,16.4921628 136.119625,14.8886753 135.364894,13.6404226 L137.316278,13.6404226 C137.722195,14.3359858 138.507657,15.3762345 139.999689,16.4506537 L139.690091,18.1233995" id="Fill-16" fill="#9F2430"></path>
                <path d="M144.42281,20.783189 C144.379925,20.783189 144.345067,20.7673651 144.316171,20.7547518 C143.24244,20.2687979 142.285897,19.7739 141.44425,19.2760208 L141.784119,17.5328702 C142.752129,18.0403814 143.934563,18.5235833 145.334404,18.9483057 C145.354585,18.9558737 145.374537,18.9618363 145.396094,18.9618363 C145.399305,18.9618363 145.402515,18.961607 145.405726,18.9613776 C145.431411,18.9570203 145.456867,18.9476177 145.477507,18.9366098 C148.773692,17.0533376 150.620271,15.1929985 151.674968,13.6404226 L154.579913,13.6404226 C153.11219,15.7177095 150.268476,18.4148801 144.516607,20.7570452 C144.501471,20.7666771 144.452394,20.783189 144.42281,20.783189" id="Fill-17" fill="#9F2430"></path>
                <path d="M155.870821,11.279223 L152.86841,11.279223 C153.028942,10.7866184 153.100953,10.4235863 153.150259,10.1837053 C153.826788,7.45167624 152.156794,4.73042581 149.554337,4.10274484 C149.189929,4.01422279 148.824374,3.97156708 148.463406,3.97156708 C146.264803,3.97156708 144.237281,5.55074545 143.642394,7.89245185 L144.026296,5.90919096 C145.10576,3.21202036 147.624281,1.54179729 150.244167,1.54179729 C150.984909,1.54179729 151.733906,1.6754977 152.460429,1.95688774 C154.999131,2.9370516 156.597803,5.43630891 156.596428,8.13600216 C156.595968,8.96251375 156.445527,9.80760121 156.126297,10.6338835 C156.067588,10.7689599 155.984341,11.0141155 155.870821,11.279223" id="Fill-18" fill="#9F2430"></path>
            </g>
        </g>
    </g>
</svg>